# xmcd CD database file
#
# Track frame offsets:
#	150
#	21208
#	48670
#	63823
#	83329
#	106857
#	127983
#	151803
#	165722
#	187037
#
# Disc length: 2728 seconds
#
# Revision: 0
# Processed by: cddbd v1.5.1PL0 Copyright (c) Steve Scherf et al.
# Submitted via: NeoAudio 9.9.9
#
DISCID=710aa60a
DTITLE=Jose Alberto El Canario - Then And Now
DYEAR=2004
DGENRE=Salsa
TTITLE0=Mueve Tu Cintura
TTITLE1=Canta Canario
TTITLE2=Desesperado
TTITLE3=Hay Amores
TTITLE4=Rio Manzanares
TTITLE5=La Condicion
TTITLE6=Todo
TTITLE7=7 Notas De Amor
TTITLE8=Oye Mi Tono
TTITLE9=A Romper El Coco
EXTD=YEAR: 2004
EXTT0=
EXTT1=
EXTT2=
EXTT3=
EXTT4=
EXTT5=
EXTT6=
EXTT7=
EXTT8=
EXTT9=
PLAYORDER=
